<?xml version="1.0" encoding="utf-8"?>
<!-- Svg Vector Icons : http://www.onlinewebfonts.com/icon -->
<!DOCTYPE svg PUBLIC "-//W3C//DTD SVG 1.1//EN" "http://www.w3.org/Graphics/SVG/1.1/DTD/svg11.dtd">
<svg version="1.1" xmlns="http://www.w3.org/2000/svg" xmlns:xlink="http://www.w3.org/1999/xlink" x="0px" y="0px" viewBox="0 0 256 256" enable-background="new 0 0 256 256" xml:space="preserve">
<metadata> Svg Vector Icons : http://www.onlinewebfonts.com/icon </metadata>
<g><g><g><path fill="#000000" d="M53.7,25c-2.1,1.3-3.4,4.4-2.8,6.7c0.2,0.8,1.2,2.2,2.2,3c1.6,1.4,2.2,1.5,5.1,1.2c3-0.3,3.5-0.2,8.7,2.6c6.9,3.7,16.8,10.2,23.3,15.5c12.9,10.2,28.7,28.6,35,40.2c0.8,1.5,1.4,1.9,2.8,1.9s2-0.4,2.8-1.8c4.6-8.4,13.5-19.7,22.8-29.1c10.8-10.8,22.9-19.9,35.5-26.6c5.2-2.8,5.7-3,8.7-2.6c2.9,0.3,3.4,0.2,5.1-1.2c2.3-1.9,2.9-4.2,1.7-6.9c-1-2.6-3.8-4.1-6.5-3.7c-1.9,0.4-4.9,3.2-4.9,4.7c0,0.5-3,2.3-6.5,4.2c-20.9,10.9-43.5,31-55.9,50c-1.3,2-2.6,3.7-2.7,3.7c-0.2,0-1.4-1.7-2.7-3.7c-6.9-10.4-20.3-25-31.2-33.7c-7.7-6.2-17.3-12.5-24.9-16.4c-3.6-1.8-6.3-3.6-6.3-4c0-0.5-0.7-1.6-1.6-2.6C59.1,23.9,56.2,23.5,53.7,25z"/><path fill="#000000" d="M23.3,51.5c-8.7,2-14.1,9-13.1,17.1c0.8,6.6,3.7,12,12.6,23c8.7,10.8,11,16.9,10.1,27.8c-1,13.7,3.5,22.8,14,28l3.8,1.9l-2.9,3.1c-4.1,4.4-7.4,9.8-8.8,14.1c-1.7,5.2-1.3,14.5,0.9,21.6c3.3,10.1,9.1,19.8,16.8,27.8c5.7,5.9,10.2,9.3,16.8,12.3c6.3,3,10.1,3.8,16.8,3.8c5.1,0,5.9-0.2,9.5-1.9c4.9-2.4,10.3-7.7,15-14.8c4.1-6.2,10.5-18.6,12-23.3c0.6-1.8,1.2-3.3,1.3-3.3s1,1.7,1.7,3.9c4.3,12.5,14.9,29.1,21.9,34.5c5.2,4,7.9,4.9,14.5,4.9c6.6,0,11.8-1.3,18.3-4.6c13.5-6.8,26.4-22.7,31.7-39.3c2.3-7,2.7-15.8,1-21.4c-1.4-4.4-4.7-9.7-8.9-14.4l-2.9-3.1l3.7-1.9c4.5-2.2,8.6-5.8,10.6-9.1c2.8-4.7,3.3-7.3,3.4-18.8c0.2-14.8,0.9-16.4,11.8-29.8c9.1-11.2,12.6-19.8,10.6-26.6c-2.4-8.8-11.2-13.2-22.9-11.7c-10.4,1.4-20.8,5.1-35.1,12.3c-21.3,10.8-41.1,26.6-56,44.7c-1.7,2.1-3.3,3.8-3.5,3.8s-2.3-2.4-4.8-5.2c-5.5-6.5-17.7-18.5-24.3-23.7C72.8,62.3,38.6,48,23.3,51.5z M42.6,72.6c22.8,7.6,49.2,25.8,66,45.7c7.7,9.3,7,6.5,8.4,30.1c1.5,23.9,1.2,29.1-1.7,37.1c-6,16.3-14.6,26.4-23.7,27.9c-3.1,0.5-9-1-13-3.4c-4.7-2.7-12.6-10.9-15.9-16.5c-3.7-6.3-6.2-13.4-6.2-18c0-2.9,0.3-4,1.8-6.3c2.4-3.8,7.8-9.4,14.6-15c7.4-6.1,8.7-9,6.3-14.2c-1.6-3.5-4-4.9-9.3-5.5c-8.3-1-16.6-3.7-18-5.9c-0.2-0.4-0.5-5.4-0.5-10.9c-0.1-17.8-1.9-22.1-17.3-41.8c-2.1-2.7-3.8-5.2-3.8-5.6C30.2,69.1,34.9,70.1,42.6,72.6z M223.6,73.6c-1.2,1.6-3.8,5-5.8,7.4c-5.1,6.2-7.1,9.3-9.4,14.2c-3.1,6.8-3.8,10.9-4,22.4c-0.1,5.6-0.3,10.5-0.6,10.9c-1.3,2.2-9.5,4.8-17.9,5.9c-5.3,0.6-7.7,2-9.3,5.5c-2.2,4.9-0.8,8.6,5,13.1c6.2,4.9,12.9,11.5,15.4,15.4c2.1,3.1,2.3,3.8,2.3,7c0,4.6-2.4,11.7-6.2,18c-3.3,5.6-11.2,13.8-15.9,16.5c-4,2.4-9.9,3.9-13,3.4c-9.1-1.5-17.7-11.5-23.7-27.9c-3-8-3.2-13.2-1.7-37.1c1.5-23.6,0.6-20.8,8.4-30.1c13.1-15.5,30.6-29.1,49.9-38.7c12.3-6.2,27.7-11.3,28.4-9.6C225.7,70.3,224.8,71.9,223.6,73.6z"/></g></g></g>
</svg>